<svg xmlns="http://www.w3.org/2000/svg" viewBox="0 0 100 100">
  <rect width="100" height="100" rx="20" fill="#2563eb"/>
  <path d="M50 20L20 38v24c0 16.6 12.8 30.4 29 31.8 1 .1 2 .1 3 0C68.2 92.4 81 78.6 81 62V38L50 20z" fill="#fff" opacity="0.15"/>
  <path d="M50 28L30 41v19c0 12.2 9 22.3 20 23.8V28z" fill="#fff" opacity="0.25"/>
  <path d="M50 28v55c11-1.5 20-11.6 20-23.8V41L50 28z" fill="#fff" opacity="0.1"/>
  <path d="M45 55h10v15H45zM42 45h16v8H42z" fill="#fff"/>
  <circle cx="50" cy="36" r="4" fill="#fff"/>
</svg>
